<mxfile host="app.diagrams.net" modified="2020-10-24T04:03:01.877Z" agent="5.0 (Windows NT 10.0; Win64; x64) AppleWebKit/537.36 (KHTML, like Gecko) Chrome/86.0.4240.111 Safari/537.36" etag="ZdpmyLa9VGSdt9awB3yn" version="13.8.1" type="github">
  <diagram id="Fo__gIYZ2XQRWcQb4v_h" name="Page-1">
    <mxGraphModel dx="1248" dy="634" grid="1" gridSize="10" guides="1" tooltips="1" connect="1" arrows="1" fold="1" page="1" pageScale="1" pageWidth="850" pageHeight="1100" math="0" shadow="0">
      <root>
        <mxCell id="0" />
        <mxCell id="1" parent="0" />
        <mxCell id="w6lhnKoVOjb-uXRb9OAh-1" value="How should we approach complexity in Learning Analytics (LA)?" style="rounded=0;whiteSpace=wrap;html=1;" vertex="1" parent="1">
          <mxGeometry x="270" y="30" width="280" height="50" as="geometry" />
        </mxCell>
        <mxCell id="w6lhnKoVOjb-uXRb9OAh-2" value="- Defer to authority: Davis, Samara, Mason" style="rounded=1;whiteSpace=wrap;html=1;fillColor=#f8cecc;strokeColor=#b85450;" vertex="1" parent="1">
          <mxGeometry x="30" y="230" width="120" height="60" as="geometry" />
        </mxCell>
        <mxCell id="w6lhnKoVOjb-uXRb9OAh-3" value="Ignore" style="ellipse;shape=cloud;whiteSpace=wrap;html=1;" vertex="1" parent="1">
          <mxGeometry x="80" y="110" width="130" height="80" as="geometry" />
        </mxCell>
        <mxCell id="w6lhnKoVOjb-uXRb9OAh-4" value="Adopt a framework" style="ellipse;shape=cloud;whiteSpace=wrap;html=1;" vertex="1" parent="1">
          <mxGeometry x="600" y="110" width="180" height="80" as="geometry" />
        </mxCell>
        <mxCell id="w6lhnKoVOjb-uXRb9OAh-5" value="Reduce to simpler systems" style="ellipse;shape=cloud;whiteSpace=wrap;html=1;" vertex="1" parent="1">
          <mxGeometry x="320" y="110" width="140" height="80" as="geometry" />
        </mxCell>
        <mxCell id="w6lhnKoVOjb-uXRb9OAh-7" value="" style="endArrow=classic;html=1;exitX=0.625;exitY=0.2;exitDx=0;exitDy=0;exitPerimeter=0;entryX=0.25;entryY=1;entryDx=0;entryDy=0;" edge="1" parent="1" source="w6lhnKoVOjb-uXRb9OAh-3" target="w6lhnKoVOjb-uXRb9OAh-1">
          <mxGeometry width="50" height="50" relative="1" as="geometry">
            <mxPoint x="400" y="330" as="sourcePoint" />
            <mxPoint x="161" y="60" as="targetPoint" />
          </mxGeometry>
        </mxCell>
        <mxCell id="w6lhnKoVOjb-uXRb9OAh-8" value="" style="endArrow=classic;html=1;entryX=0.5;entryY=1;entryDx=0;entryDy=0;exitX=0.625;exitY=0.2;exitDx=0;exitDy=0;exitPerimeter=0;" edge="1" parent="1" source="w6lhnKoVOjb-uXRb9OAh-5" target="w6lhnKoVOjb-uXRb9OAh-1">
          <mxGeometry width="50" height="50" relative="1" as="geometry">
            <mxPoint x="500" y="126" as="sourcePoint" />
            <mxPoint x="450" y="280" as="targetPoint" />
          </mxGeometry>
        </mxCell>
        <mxCell id="w6lhnKoVOjb-uXRb9OAh-9" value="" style="endArrow=classic;html=1;entryX=0.75;entryY=1;entryDx=0;entryDy=0;exitX=0.25;exitY=0.25;exitDx=0;exitDy=0;exitPerimeter=0;" edge="1" parent="1" source="w6lhnKoVOjb-uXRb9OAh-4" target="w6lhnKoVOjb-uXRb9OAh-1">
          <mxGeometry width="50" height="50" relative="1" as="geometry">
            <mxPoint x="520" y="180" as="sourcePoint" />
            <mxPoint x="450" y="280" as="targetPoint" />
          </mxGeometry>
        </mxCell>
        <mxCell id="w6lhnKoVOjb-uXRb9OAh-10" value="- This is effectively ignoring" style="rounded=1;whiteSpace=wrap;html=1;fillColor=#f8cecc;strokeColor=#b85450;" vertex="1" parent="1">
          <mxGeometry x="260" y="230" width="120" height="60" as="geometry" />
        </mxCell>
        <mxCell id="w6lhnKoVOjb-uXRb9OAh-11" value="+ Analysis can be done and understood / communicated" style="rounded=1;whiteSpace=wrap;html=1;fillColor=#d5e8d4;strokeColor=#82b366;" vertex="1" parent="1">
          <mxGeometry x="410" y="230" width="120" height="60" as="geometry" />
        </mxCell>
        <mxCell id="w6lhnKoVOjb-uXRb9OAh-12" value="" style="endArrow=classic;html=1;exitX=0.5;exitY=0;exitDx=0;exitDy=0;entryX=0.31;entryY=0.8;entryDx=0;entryDy=0;entryPerimeter=0;" edge="1" parent="1" source="w6lhnKoVOjb-uXRb9OAh-10" target="w6lhnKoVOjb-uXRb9OAh-5">
          <mxGeometry width="50" height="50" relative="1" as="geometry">
            <mxPoint x="400" y="310" as="sourcePoint" />
            <mxPoint x="290" y="190" as="targetPoint" />
          </mxGeometry>
        </mxCell>
        <mxCell id="w6lhnKoVOjb-uXRb9OAh-13" value="" style="endArrow=classic;html=1;entryX=0.8;entryY=0.8;entryDx=0;entryDy=0;entryPerimeter=0;exitX=0.5;exitY=0;exitDx=0;exitDy=0;" edge="1" parent="1" source="w6lhnKoVOjb-uXRb9OAh-11" target="w6lhnKoVOjb-uXRb9OAh-5">
          <mxGeometry width="50" height="50" relative="1" as="geometry">
            <mxPoint x="510" y="174" as="sourcePoint" />
            <mxPoint x="450" y="260" as="targetPoint" />
          </mxGeometry>
        </mxCell>
        <mxCell id="w6lhnKoVOjb-uXRb9OAh-14" value="" style="endArrow=classic;html=1;exitX=0.8;exitY=0.8;exitDx=0;exitDy=0;exitPerimeter=0;entryX=0;entryY=0.5;entryDx=0;entryDy=0;" edge="1" parent="1" source="w6lhnKoVOjb-uXRb9OAh-3" target="w6lhnKoVOjb-uXRb9OAh-10">
          <mxGeometry width="50" height="50" relative="1" as="geometry">
            <mxPoint x="400" y="310" as="sourcePoint" />
            <mxPoint x="180" y="260" as="targetPoint" />
          </mxGeometry>
        </mxCell>
        <mxCell id="w6lhnKoVOjb-uXRb9OAh-15" value="- It&#39;s too hard, there are no tools" style="rounded=1;whiteSpace=wrap;html=1;" vertex="1" parent="1">
          <mxGeometry x="570" y="230" width="120" height="60" as="geometry" />
        </mxCell>
        <mxCell id="w6lhnKoVOjb-uXRb9OAh-16" value="+ It&#39;s difficult but there are&amp;nbsp;" style="rounded=1;whiteSpace=wrap;html=1;" vertex="1" parent="1">
          <mxGeometry x="570" y="330" width="120" height="60" as="geometry" />
        </mxCell>
        <mxCell id="w6lhnKoVOjb-uXRb9OAh-17" value="What framework?" style="rounded=0;whiteSpace=wrap;html=1;" vertex="1" parent="1">
          <mxGeometry x="720" y="245" width="80" height="30" as="geometry" />
        </mxCell>
        <mxCell id="w6lhnKoVOjb-uXRb9OAh-18" value="" style="endArrow=classic;html=1;exitX=0.5;exitY=0;exitDx=0;exitDy=0;entryX=0.31;entryY=0.8;entryDx=0;entryDy=0;entryPerimeter=0;" edge="1" parent="1" source="w6lhnKoVOjb-uXRb9OAh-2" target="w6lhnKoVOjb-uXRb9OAh-3">
          <mxGeometry width="50" height="50" relative="1" as="geometry">
            <mxPoint x="400" y="300" as="sourcePoint" />
            <mxPoint x="450" y="250" as="targetPoint" />
          </mxGeometry>
        </mxCell>
      </root>
    </mxGraphModel>
  </diagram>
</mxfile>
